<svg width="20" height="80" viewBox="0 0 99 80" fill="none" xmlns="http://www.w3.org/2000/svg">
<g style="mix-blend-mode:darken">
<mask id="path-1-inside-1_104_15" fill="white">
<path d="M22.7073 1L0 27.4333L22.637 53.5854L29.5265 48.3128L11.4591 27.4333L29.6671 6.5538L22.7073 1Z"/>
</mask>
<path d="M22.7073 1L0 27.4333L22.637 53.5854L29.5265 48.3128L11.4591 27.4333L29.6671 6.5538L22.7073 1Z" fill="black"/>
<path d="M22.7073 1L23.331 0.218361L22.5772 -0.383183L21.9488 0.348378L22.7073 1ZM0 27.4333L-0.758544 26.7817L-1.32045 27.4358L-0.756091 28.0878L0 27.4333ZM22.637 53.5854L21.8809 54.2398L22.4971 54.9517L23.2448 54.3795L22.637 53.5854ZM29.5265 48.3128L30.1343 49.1069L30.9776 48.4615L30.2827 47.6584L29.5265 48.3128ZM11.4591 27.4333L10.7054 26.776L10.1345 27.4307L10.7029 28.0876L11.4591 27.4333ZM29.6671 6.5538L30.4208 7.21105L31.1074 6.42373L30.2909 5.77216L29.6671 6.5538ZM21.9488 0.348378L-0.758544 26.7817L0.758544 28.0849L23.4659 1.65162L21.9488 0.348378ZM-0.756091 28.0878L21.8809 54.2398L23.3931 52.9309L0.756091 26.7788L-0.756091 28.0878ZM23.2448 54.3795L30.1343 49.1069L28.9188 47.5186L22.0293 52.7912L23.2448 54.3795ZM30.2827 47.6584L12.2153 26.7789L10.7029 28.0876L28.7703 48.9671L30.2827 47.6584ZM12.2128 28.0905L30.4208 7.21105L28.9135 5.89656L10.7054 26.776L12.2128 28.0905ZM30.2909 5.77216L23.331 0.218361L22.0836 1.78164L29.0434 7.33544L30.2909 5.77216Z" fill="black" mask="url(#path-1-inside-1_104_15)"/>
</g>
<path d="M98 26.8006L79.8623 5.2884L68.7547 5.5696L86.4706 26.8006L68.5438 48.2425L75.363 53.5854L86.6815 40.193L98 26.8006Z" fill="black"/>
<path d="M75.363 53.5854L75.0546 53.979L75.4339 54.2761L75.7449 53.9081L75.363 53.5854ZM98 26.8006L98.3819 27.1233L98.6543 26.801L98.3823 26.4783L98 26.8006ZM79.8623 5.2884L80.2445 4.9661L80.0897 4.78248L79.8496 4.78856L79.8623 5.2884ZM68.7547 5.5696L68.742 5.06976L67.7082 5.09594L68.3708 5.88994L68.7547 5.5696ZM86.4706 26.8006L86.8542 27.1213L87.1221 26.8009L86.8545 26.4803L86.4706 26.8006ZM68.5438 48.2425L68.1602 47.9218L67.8291 48.3177L68.2354 48.6361L68.5438 48.2425ZM98.3823 26.4783L80.2445 4.9661L79.48 5.6107L97.6177 27.1229L98.3823 26.4783ZM79.8496 4.78856L68.742 5.06976L68.7673 6.06944L79.8749 5.78824L79.8496 4.78856ZM68.3708 5.88994L86.0867 27.1209L86.8545 26.4803L69.1386 5.24926L68.3708 5.88994ZM86.087 26.4799L68.1602 47.9218L68.9274 48.5632L86.8542 27.1213L86.087 26.4799ZM68.2354 48.6361L75.0546 53.979L75.6714 53.1918L68.8521 47.8489L68.2354 48.6361ZM75.7449 53.9081L87.0634 40.5157L86.2996 39.8702L74.9811 53.2626L75.7449 53.9081ZM87.0634 40.5157L98.3819 27.1233L97.6181 26.4778L86.2996 39.8702L87.0634 40.5157Z" fill="black"/>
<path d="M55.4677 1H64.2554L39.0172 54.0775H30.6514L55.4677 1Z" fill="black"/>
<path d="M55.4677 1V0.5H55.1495L55.0148 0.788229L55.4677 1ZM64.2554 1L64.7069 1.21471L65.0468 0.5H64.2554V1ZM39.0172 54.0775V54.5775H39.3331L39.4688 54.2922L39.0172 54.0775ZM30.6514 54.0775L30.1984 53.8657L29.8656 54.5775H30.6514V54.0775ZM55.4677 1.5H64.2554V0.5H55.4677V1.5ZM63.8038 0.785289L38.5657 53.8628L39.4688 54.2922L64.7069 1.21471L63.8038 0.785289ZM39.0172 53.5775H30.6514V54.5775H39.0172V53.5775ZM31.1043 54.2892L55.9207 1.21177L55.0148 0.788229L30.1984 53.8657L31.1043 54.2892Z" fill="black"/>
<path d="M22.5667 65.0445V66.3802L13.076 71.0201L22.5667 75.7303V76.9254L11.1076 71.0201L22.5667 65.0445Z" fill="black"/>
<path d="M39.5796 79.0344V59.6313H43.0947L50.2654 73.8321L56.8737 59.6313H60.4591V74.254H56.8737V68.208L52.023 78.1908H48.7188L43.0947 67.7159V79.0344H39.5796Z" fill="black"/>
<path d="M75.2927 65.0445V66.3802L84.7131 70.9498L75.2927 75.66V76.9254L86.6815 70.9498L75.2927 65.0445Z" fill="black"/>
<path d="M70.0904 60.7561H73.5352L64.9584 79.0344H61.6542L70.0904 60.7561Z" fill="black"/>
<path d="M22.5667 65.0445H23.0667V64.2198L22.3355 64.6011L22.5667 65.0445ZM22.5667 66.3802L22.7863 66.8294L23.0667 66.6923V66.3802H22.5667ZM13.076 71.0201L12.8564 70.5709L11.9445 71.0167L12.8538 71.468L13.076 71.0201ZM22.5667 75.7303H23.0667V75.4202L22.789 75.2824L22.5667 75.7303ZM22.5667 76.9254L22.3377 77.3699L23.0667 77.7456V76.9254H22.5667ZM11.1076 71.0201L10.8764 70.5768L10.0212 71.0227L10.8786 71.4645L11.1076 71.0201ZM70.0904 60.7561V60.2561H69.7705L69.6364 60.5466L70.0904 60.7561ZM73.5352 60.7561L73.9878 60.9685L74.3221 60.2561H73.5352V60.7561ZM64.9584 79.0344V79.5344H65.2761L65.411 79.2468L64.9584 79.0344ZM61.6542 79.0344L61.2003 78.8249L60.8728 79.5344H61.6542V79.0344ZM75.2927 65.0445L75.5228 64.6006L74.7927 64.222V65.0445H75.2927ZM75.2927 66.3802H74.7927V66.6934L75.0745 66.8301L75.2927 66.3802ZM84.7131 70.9498L84.9367 71.397L85.8447 70.943L84.9313 70.4999L84.7131 70.9498ZM75.2927 75.66L75.0691 75.2128L74.7927 75.351V75.66H75.2927ZM75.2927 76.9254H74.7927V77.7524L75.525 77.3682L75.2927 76.9254ZM86.6815 70.9498L86.9138 71.3926L87.7626 70.9472L86.9117 70.5059L86.6815 70.9498ZM39.5796 79.0344H39.0796V79.5344H39.5796V79.0344ZM39.5796 59.6313V59.1313H39.0796V59.6313H39.5796ZM43.0947 59.6313L43.541 59.4059L43.4023 59.1313H43.0947V59.6313ZM50.2654 73.8321L49.8191 74.0575L50.2838 74.9778L50.7187 74.0431L50.2654 73.8321ZM56.8737 59.6313V59.1313H56.5549L56.4204 59.4203L56.8737 59.6313ZM60.4591 59.6313H60.9591V59.1313H60.4591V59.6313ZM60.4591 74.254V74.754H60.9591V74.254H60.4591ZM56.8737 74.254H56.3737V74.754H56.8737V74.254ZM56.8737 68.208H57.3737L56.424 67.9895L56.8737 68.208ZM52.023 78.1908V78.6908H52.3359L52.4727 78.4094L52.023 78.1908ZM48.7188 78.1908L48.2783 78.4273L48.4197 78.6908H48.7188V78.1908ZM43.0947 67.7159L43.5352 67.4794L42.5947 67.7159H43.0947ZM43.0947 79.0344V79.5344H43.5947V79.0344H43.0947ZM22.0667 65.0445V66.3802H23.0667V65.0445H22.0667ZM22.3471 65.931L12.8564 70.5709L13.2956 71.4693L22.7863 66.8294L22.3471 65.931ZM12.8538 71.468L22.3444 76.1782L22.789 75.2824L13.2983 70.5722L12.8538 71.468ZM22.0667 75.7303V76.9254H23.0667V75.7303H22.0667ZM22.7958 76.481L11.3366 70.5756L10.8786 71.4645L22.3377 77.3699L22.7958 76.481ZM11.3388 71.4634L22.7979 65.4878L22.3355 64.6011L10.8764 70.5768L11.3388 71.4634ZM70.0904 61.2561H73.5352V60.2561H70.0904V61.2561ZM73.0825 60.5437L64.5058 78.822L65.411 79.2468L73.9878 60.9685L73.0825 60.5437ZM64.9584 78.5344H61.6542V79.5344H64.9584V78.5344ZM62.1082 79.244L70.5444 60.9656L69.6364 60.5466L61.2003 78.8249L62.1082 79.244ZM74.7927 65.0445V66.3802H75.7927V65.0445H74.7927ZM75.0745 66.8301L84.4948 71.3997L84.9313 70.4999L75.5109 65.9303L75.0745 66.8301ZM84.4895 70.5026L75.0691 75.2128L75.5163 76.1072L84.9367 71.397L84.4895 70.5026ZM74.7927 75.66V76.9254H75.7927V75.66H74.7927ZM75.525 77.3682L86.9138 71.3926L86.4492 70.507L75.0604 76.4826L75.525 77.3682ZM86.9117 70.5059L75.5228 64.6006L75.0625 65.4884L86.4513 71.3937L86.9117 70.5059ZM40.0796 79.0344V59.6313H39.0796V79.0344H40.0796ZM39.5796 60.1313H43.0947V59.1313H39.5796V60.1313ZM42.6484 59.8567L49.8191 74.0575L50.7118 73.6068L43.541 59.4059L42.6484 59.8567ZM50.7187 74.0431L57.3271 59.8422L56.4204 59.4203L49.8121 73.6212L50.7187 74.0431ZM56.8737 60.1313H60.4591V59.1313H56.8737V60.1313ZM59.9591 59.6313V74.254H60.9591V59.6313H59.9591ZM60.4591 73.754H56.8737V74.754H60.4591V73.754ZM57.3737 74.254V68.208H56.3737V74.254H57.3737ZM56.424 67.9895L51.5732 77.9723L52.4727 78.4094L57.3235 68.4266L56.424 67.9895ZM52.023 77.6908H48.7188V78.6908H52.023V77.6908ZM49.1593 77.9543L43.5352 67.4794L42.6542 67.9525L48.2783 78.4273L49.1593 77.9543ZM42.5947 67.7159V79.0344H43.5947V67.7159H42.5947ZM43.0947 78.5344H39.5796V79.5344H43.0947V78.5344Z" fill="black"/>
<path d="M38.5251 78.9641H32.3386L30.6514 78.6126L29.175 78.1908L27.9096 77.5581L26.5036 76.5739L25.1679 75.0976L24.5352 73.4806L24.1133 71.5122V70.3874V68.0674V66.099L24.5352 64.693L25.1679 63.7088L26.5036 62.2324L27.9096 61.3888L29.175 60.6155L30.6514 60.0531L32.3386 59.6313H38.5251V62.7948H32.3386L31.4247 63.1464L30.3702 63.7088L29.175 64.693L27.9096 66.099V67.2238V68.7705V70.3874V71.5122L28.472 73.1291L29.6671 74.3243L31.1435 75.0976L32.6901 75.66H34.9397V70.7389H31.1435V66.8723H38.5251V78.9641Z" fill="black"/>
<path d="M38.5251 78.9641V79.4641H39.0251V78.9641H38.5251ZM32.3386 78.9641L32.2366 79.4536L32.2871 79.4641H32.3386V78.9641ZM30.6514 78.6126L30.514 79.0934L30.5315 79.0984L30.5494 79.1021L30.6514 78.6126ZM29.175 78.1908L28.9514 78.638L28.993 78.6588L29.0377 78.6716L29.175 78.1908ZM27.9096 77.5581L27.6229 77.9677L27.6531 77.9889L27.686 78.0053L27.9096 77.5581ZM26.5036 76.5739L26.1328 76.9094L26.1707 76.9512L26.2169 76.9835L26.5036 76.5739ZM25.1679 75.0976L24.7022 75.2798L24.7356 75.3651L24.7971 75.433L25.1679 75.0976ZM24.5352 73.4806L24.0462 73.5854L24.0547 73.6251L24.0695 73.6628L24.5352 73.4806ZM24.1133 71.5122H23.6133V71.5652L23.6244 71.617L24.1133 71.5122ZM24.1133 66.099L23.6344 65.9553L23.6133 66.0256V66.099H24.1133ZM24.5352 64.693L24.1146 64.4226L24.0765 64.4818L24.0562 64.5493L24.5352 64.693ZM25.1679 63.7088L24.7971 63.3733L24.7695 63.4038L24.7473 63.4384L25.1679 63.7088ZM26.5036 62.2324L26.2463 61.8037L26.1826 61.8419L26.1328 61.897L26.5036 62.2324ZM27.9096 61.3888L28.1669 61.8176L28.1703 61.8155L27.9096 61.3888ZM29.175 60.6155L28.997 60.1483L28.9538 60.1647L28.9143 60.1889L29.175 60.6155ZM30.6514 60.0531L30.5301 59.568L30.5012 59.5752L30.4734 59.5859L30.6514 60.0531ZM32.3386 59.6313V59.1313H32.277L32.2173 59.1462L32.3386 59.6313ZM38.5251 59.6313H39.0251V59.1313H38.5251V59.6313ZM38.5251 62.7948V63.2948H39.0251V62.7948H38.5251ZM32.3386 62.7948V62.2948H32.2458L32.1591 62.3282L32.3386 62.7948ZM31.4247 63.1464L31.2452 62.6797L31.2165 62.6907L31.1894 62.7052L31.4247 63.1464ZM30.3702 63.7088L30.1349 63.2676L30.0908 63.2911L30.0523 63.3228L30.3702 63.7088ZM29.175 64.693L28.8572 64.307L28.8284 64.3307L28.8034 64.3585L29.175 64.693ZM27.9096 66.099L27.538 65.7645L27.4096 65.9071V66.099H27.9096ZM27.9096 71.5122H27.4096V71.5967L27.4374 71.6765L27.9096 71.5122ZM28.472 73.1291L27.9998 73.2934L28.0374 73.4016L28.1185 73.4827L28.472 73.1291ZM29.6671 74.3243L29.3136 74.6778L29.3675 74.7318L29.4351 74.7672L29.6671 74.3243ZM31.1435 75.0976L30.9115 75.5405L30.9411 75.556L30.9726 75.5675L31.1435 75.0976ZM32.6901 75.66L32.5192 76.1299L32.602 76.16H32.6901V75.66ZM34.9397 75.66V76.16H35.4397V75.66H34.9397ZM34.9397 70.7389H35.4397V70.2389H34.9397V70.7389ZM31.1435 70.7389H30.6435V71.2389H31.1435V70.7389ZM31.1435 66.8723V66.3723H30.6435V66.8723H31.1435ZM38.5251 66.8723H39.0251V66.3723H38.5251V66.8723ZM38.5251 78.4641H32.3386V79.4641H38.5251V78.4641ZM32.4406 78.4747L30.7533 78.1231L30.5494 79.1021L32.2366 79.4536L32.4406 78.4747ZM30.7887 78.1319L29.3124 77.7101L29.0377 78.6716L30.514 79.0934L30.7887 78.1319ZM29.3986 77.7436L28.1332 77.1109L27.686 78.0053L28.9514 78.638L29.3986 77.7436ZM28.1963 77.1485L26.7903 76.1643L26.2169 76.9835L27.6229 77.9677L28.1963 77.1485ZM26.8744 76.2384L25.5386 74.7621L24.7971 75.433L26.1328 76.9094L26.8744 76.2384ZM25.6335 74.9154L25.0008 73.2984L24.0695 73.6628L24.7022 75.2798L25.6335 74.9154ZM25.0241 73.3759L24.6022 71.4074L23.6244 71.617L24.0462 73.5854L25.0241 73.3759ZM24.6133 71.5122V70.3874H23.6133V71.5122H24.6133ZM24.6133 70.3874V68.0674H23.6133V70.3874H24.6133ZM24.6133 68.0674V66.099H23.6133V68.0674H24.6133ZM24.5923 66.2427L25.0141 64.8367L24.0562 64.5493L23.6344 65.9553L24.5923 66.2427ZM24.9557 64.9634L25.5885 63.9791L24.7473 63.4384L24.1146 64.4226L24.9557 64.9634ZM25.5386 64.0442L26.8744 62.5679L26.1328 61.897L24.7971 63.3733L25.5386 64.0442ZM26.7608 62.6612L28.1669 61.8176L27.6524 60.9601L26.2463 61.8037L26.7608 62.6612ZM28.1703 61.8155L29.4358 61.0421L28.9143 60.1889L27.6489 60.9622L28.1703 61.8155ZM29.353 61.0827L30.8294 60.5203L30.4734 59.5859L28.997 60.1483L29.353 61.0827ZM30.7726 60.5382L32.4599 60.1164L32.2173 59.1462L30.5301 59.568L30.7726 60.5382ZM32.3386 60.1313H38.5251V59.1313H32.3386V60.1313ZM38.0251 59.6313V62.7948H39.0251V59.6313H38.0251ZM38.5251 62.2948H32.3386V63.2948H38.5251V62.2948ZM32.1591 62.3282L31.2452 62.6797L31.6042 63.613L32.5181 63.2615L32.1591 62.3282ZM31.1894 62.7052L30.1349 63.2676L30.6055 64.1499L31.66 63.5875L31.1894 62.7052ZM30.0523 63.3228L28.8572 64.307L29.4929 65.0789L30.688 64.0947L30.0523 63.3228ZM28.8034 64.3585L27.538 65.7645L28.2813 66.4335L29.5467 65.0275L28.8034 64.3585ZM27.4096 66.099V67.2238H28.4096V66.099H27.4096ZM27.4096 67.2238V68.7705H28.4096V67.2238H27.4096ZM27.4096 68.7705V70.3874H28.4096V68.7705H27.4096ZM27.4096 70.3874V71.5122H28.4096V70.3874H27.4096ZM27.4374 71.6765L27.9998 73.2934L28.9443 72.9649L28.3819 71.3479L27.4374 71.6765ZM28.1185 73.4827L29.3136 74.6778L30.0207 73.9707L28.8256 72.7756L28.1185 73.4827ZM29.4351 74.7672L30.9115 75.5405L31.3755 74.6547L29.8991 73.8813L29.4351 74.7672ZM30.9726 75.5675L32.5192 76.1299L32.861 75.1901L31.3143 74.6277L30.9726 75.5675ZM32.6901 76.16H34.9397V75.16H32.6901V76.16ZM35.4397 75.66V70.7389H34.4397V75.66H35.4397ZM34.9397 70.2389H31.1435V71.2389H34.9397V70.2389ZM31.6435 70.7389V66.8723H30.6435V70.7389H31.6435ZM31.1435 67.3723H38.5251V66.3723H31.1435V67.3723ZM38.0251 66.8723V78.9641H39.0251V66.8723H38.0251Z" fill="black"/>
</svg>
